<?xml version="1.0" standalone="no"?>
<!DOCTYPE svg PUBLIC "-//W3C//DTD SVG 20010904//EN"
 "http://www.w3.org/TR/2001/REC-SVG-20010904/DTD/svg10.dtd">
<svg version="1.0" xmlns="http://www.w3.org/2000/svg"
 width="1004.000000pt" height="647.000000pt" viewBox="0 0 1004.000000 647.000000"
 preserveAspectRatio="xMidYMid meet">

<g transform="translate(0.000000,647.000000) scale(0.100000,-0.100000)"
fill="#FFFFFF" stroke="none">
<path d="M240 6461 c-86 -18 -168 -80 -212 -163 l-23 -43 0 -3020 0 -3020 23
-42 c35 -66 79 -110 140 -140 l57 -28 4780 -3 c4327 -2 4785 -1 4834 14 42 12
67 28 111 72 100 101 90 -252 90 3147 0 3338 7 3040 -71 3129 -22 25 -65 57
-97 73 l-57 28 -4770 1 c-2623 1 -4786 -1 -4805 -5z m454 -273 c33 -47 7 -98
-49 -98 -39 0 -58 20 -58 62 0 56 76 81 107 36z m-272 -5 c22 -20 23 -42 2
-71 -28 -41 -104 -18 -104 31 0 49 64 75 102 40z m9538 -3166 l0 -2763 -25
-51 c-27 -54 -78 -97 -136 -113 -52 -15 -9496 -13 -9556 2 -60 15 -137 87
-152 143 -8 29 -11 831 -11 2793 l0 2752 4940 0 4940 0 0 -2763z"/>
<path d="M2464 5011 c-402 -73 -739 -311 -942 -664 -259 -451 -235 -1018 61
-1457 96 -142 276 -310 430 -401 31 -18 57 -38 57 -42 0 -14 -551 -1191 -563
-1203 -2 -2 -21 33 -42 78 -21 46 -148 317 -283 603 -135 286 -293 624 -352
750 -288 621 -484 1024 -498 1030 -11 4 -23 -2 -34 -15 -16 -19 -16 -25 -4
-53 16 -38 207 -444 336 -717 51 -107 190 -404 310 -660 120 -256 277 -591
350 -745 72 -154 145 -308 161 -343 26 -58 31 -63 56 -60 26 3 40 31 239 453
116 248 305 648 418 890 114 242 285 605 379 808 l171 367 623 0 623 0 0 -37
c0 -72 -31 -228 -65 -330 -79 -235 -215 -437 -396 -587 -250 -205 -545 -307
-859 -294 -63 3 -121 3 -127 1 -17 -6 -17 -48 0 -61 22 -19 194 -25 310 -13
454 49 842 314 1060 721 89 165 157 426 157 598 0 50 -3 63 -19 72 -23 12
-1329 14 -1349 2 -6 -5 -88 -170 -180 -368 -291 -620 -375 -799 -379 -803 -11
-14 -162 84 -254 166 -226 200 -376 470 -425 768 -32 197 -8 454 61 645 131
362 449 669 811 783 181 57 417 73 600 42 237 -42 470 -156 635 -312 60 -57
91 -66 110 -32 10 20 4 28 -59 89 -159 152 -377 266 -622 321 -128 29 -375 34
-506 10z"/>
<path d="M6030 3968 l0 -262 -32 31 c-70 66 -156 87 -249 60 -179 -52 -259
-289 -161 -471 82 -151 274 -192 397 -84 l45 40 0 -41 0 -41 50 0 50 0 0 515
0 515 -50 0 -50 0 0 -262z m-122 -263 c82 -35 125 -105 125 -205 0 -70 -20
-129 -56 -169 -30 -32 -94 -61 -137 -61 -53 0 -120 38 -155 88 -25 36 -30 55
-33 117 -2 41 1 89 8 109 35 106 150 161 248 121z"/>
<path d="M9700 3715 l0 -515 50 0 50 0 0 515 0 515 -50 0 -50 0 0 -515z"/>
<path d="M7653 4146 c-240 -58 -411 -307 -373 -543 20 -123 64 -206 154 -291
150 -142 355 -170 538 -75 143 75 219 190 226 345 l4 88 -196 0 -196 0 0 -50
0 -50 140 0 c136 0 140 -1 140 -21 0 -81 -81 -188 -178 -236 -50 -25 -68 -28
-152 -28 -82 0 -103 4 -153 27 -73 35 -155 116 -193 193 -26 55 -29 69 -29
165 0 96 3 110 29 165 38 77 120 158 193 193 51 24 70 27 158 27 90 0 106 -3
158 -29 32 -15 82 -53 113 -84 l55 -56 36 36 36 37 -59 58 c-33 32 -83 70
-110 85 -98 53 -232 70 -341 44z"/>
<path d="M4401 4131 c42 -115 375 -971 379 -971 4 0 337 856 379 971 2 6 -20
9 -54 7 l-57 -3 -132 -352 c-72 -194 -133 -353 -136 -353 -3 0 -64 159 -136
353 l-132 352 -57 3 c-34 2 -56 -1 -54 -7z"/>
<path d="M5280 4053 c-25 -32 -20 -69 12 -95 46 -40 108 -7 108 56 0 65 -79
90 -120 39z"/>
<path d="M6330 4053 c-25 -32 -20 -69 12 -95 46 -40 108 -7 108 56 0 65 -79
90 -120 39z"/>
<path d="M6650 3895 l0 -105 -30 0 c-29 0 -30 -2 -30 -45 0 -43 1 -45 30 -45
l30 0 0 -250 0 -250 50 0 50 0 0 250 0 250 50 0 50 0 0 45 0 45 -50 0 -50 0 0
105 0 105 -50 0 -50 0 0 -105z"/>
<path d="M8512 3792 c-260 -93 -283 -457 -37 -577 179 -88 390 14 434 209 22
98 -8 209 -78 289 -72 82 -213 117 -319 79z m159 -83 c52 -18 97 -56 121 -102
31 -59 31 -165 0 -225 -80 -151 -295 -144 -368 12 -83 177 71 373 247 315z"/>
<path d="M9215 3801 c-146 -38 -239 -211 -204 -379 16 -77 39 -120 92 -169
126 -117 353 -83 440 65 l17 30 -34 21 c-18 12 -36 21 -39 21 -4 0 -30 -24
-59 -54 -43 -43 -62 -55 -96 -61 -105 -17 -197 47 -220 152 l-10 43 232 2 231
3 -3 49 c-8 163 -109 274 -255 282 -34 2 -75 0 -92 -5z m141 -100 c45 -21 88
-70 99 -113 l7 -28 -176 0 c-194 0 -192 -1 -153 62 53 87 138 117 223 79z"/>
<path d="M5280 3495 l0 -295 50 0 50 0 0 295 0 295 -50 0 -50 0 0 -295z"/>
<path d="M6330 3495 l0 -295 50 0 50 0 0 295 0 295 -50 0 -50 0 0 -295z"/>
<path d="M6330 1950 c0 -157 2 -190 14 -190 8 0 16 6 18 12 4 10 10 10 32 0
74 -33 146 15 146 98 0 83 -87 140 -146 95 -10 -8 -22 -15 -26 -15 -5 0 -8 43
-8 95 0 78 -3 95 -15 95 -13 0 -15 -28 -15 -190z m157 -21 c35 -30 21 -113
-23 -129 -62 -24 -120 36 -95 98 20 47 79 63 118 31z"/>
<path d="M7740 1950 c0 -183 1 -190 20 -190 19 0 20 7 20 190 0 183 -1 190
-20 190 -19 0 -20 -7 -20 -190z"/>
<path d="M5748 1984 l-55 -137 -27 74 c-14 41 -34 99 -44 129 -14 41 -24 56
-40 58 -21 3 -21 2 -8 -35 8 -21 35 -96 60 -166 25 -70 49 -134 53 -142 5 -9
26 32 62 121 29 74 55 133 57 131 3 -2 29 -64 58 -137 40 -99 55 -128 60 -114
5 11 28 75 53 144 25 69 51 142 59 163 13 37 13 38 -8 35 -16 -2 -26 -17 -40
-58 -10 -30 -30 -88 -44 -129 l-27 -73 -53 132 c-29 73 -55 135 -57 137 -3 2
-29 -58 -59 -133z"/>
<path d="M6740 1935 l0 -175 58 0 c101 0 173 51 192 136 27 118 -60 214 -192
214 l-58 0 0 -175z m158 115 c35 -21 62 -72 62 -115 0 -75 -61 -135 -137 -135
l-43 0 0 135 0 135 43 0 c24 0 56 -8 75 -20z"/>
<path d="M6108 1951 c-29 -26 -33 -36 -33 -79 0 -39 5 -56 24 -76 44 -47 136
-43 162 7 17 31 -8 39 -36 11 -30 -29 -54 -30 -89 -3 -48 38 -35 49 59 49 94
0 99 4 70 60 -34 66 -103 79 -157 31z m106 -22 c14 -11 26 -25 26 -30 0 -5
-29 -9 -65 -9 -36 0 -65 4 -65 9 0 13 49 51 65 51 7 0 24 -9 39 -21z"/>
<path d="M7068 1951 c-29 -26 -33 -36 -33 -79 0 -39 5 -56 24 -76 44 -47 136
-43 162 7 17 31 -8 39 -36 11 -30 -29 -54 -30 -89 -3 -48 38 -35 49 59 49 94
0 99 4 70 60 -34 66 -103 79 -157 31z m106 -22 c14 -11 26 -25 26 -30 0 -5
-29 -9 -65 -9 -36 0 -65 4 -65 9 0 13 49 51 65 51 7 0 24 -9 39 -21z"/>
<path d="M7260 1976 c0 -2 18 -44 41 -93 22 -48 45 -99 50 -112 9 -22 15 -15
59 84 28 60 50 112 50 117 0 4 -7 8 -15 8 -10 0 -29 -29 -49 -72 l-34 -73 -33
73 c-23 51 -38 72 -51 72 -10 0 -18 -2 -18 -4z"/>
<path d="M7543 1970 c-50 -20 -73 -113 -40 -163 21 -32 69 -51 110 -43 40 8
72 38 63 61 -5 14 -10 13 -38 -10 -23 -20 -38 -25 -57 -20 -26 6 -61 39 -61
56 0 5 38 9 85 9 78 0 85 2 85 20 0 72 -76 118 -147 90z m95 -42 c6 -6 12 -17
12 -24 0 -11 -17 -14 -65 -14 -63 0 -65 1 -55 21 20 36 72 45 108 17z"/>
<path d="M7888 1964 c-30 -16 -58 -61 -58 -94 0 -53 57 -110 110 -110 34 0 86
29 100 55 30 56 9 124 -45 150 -41 19 -72 19 -107 -1z m115 -46 c40 -48 7
-122 -56 -122 -49 0 -77 27 -77 74 0 72 86 104 133 48z"/>
<path d="M8110 1810 c0 -144 2 -170 15 -170 12 0 15 16 15 81 l0 80 26 -20
c88 -69 196 49 137 149 -28 48 -83 63 -135 36 -24 -13 -28 -13 -28 0 0 8 -7
14 -15 14 -13 0 -15 -26 -15 -170z m134 129 c55 -25 52 -116 -4 -139 -23 -9
-34 -9 -56 2 -54 26 -55 116 -2 138 31 12 33 12 62 -1z"/>
<path d="M8413 1970 c-50 -20 -73 -113 -40 -163 21 -32 69 -51 110 -43 40 8
72 38 63 61 -5 14 -10 13 -38 -10 -23 -20 -38 -25 -57 -20 -26 6 -61 39 -61
56 0 5 38 9 85 9 78 0 85 2 85 20 0 72 -76 118 -147 90z m95 -42 c6 -6 12 -17
12 -24 0 -11 -17 -14 -65 -14 -63 0 -65 1 -55 21 20 36 72 45 108 17z"/>
<path d="M8610 1870 c0 -103 1 -110 20 -110 18 0 20 7 20 79 0 85 15 117 50
106 17 -6 35 17 23 29 -11 10 -48 7 -61 -6 -9 -9 -12 -9 -12 0 0 7 -9 12 -20
12 -19 0 -20 -7 -20 -110z"/>
</g>
</svg>
